      <svg xmlns="http://www.w3.org/2000/svg" viewBox="0 0 230 394" width="230" height="394"
        preserveAspectRatio="xMidYMid meet" style="width: 100%; height: 100%; transform: translate3d(0px, 0px, 0px)"> 
	<style>
		.s0 { fill: #ffe7c5 } 
		.s1 { fill: #e2d6d3 } 
		.s2 { fill: #5f5c7c } 
	</style>
	<g id="&lt;Group&gt;">
		<path id="&lt;Path&gt;" class="s0" d="m239 148.7c-6.4-2.6-13.4-4.6-20.3-4-6.9 0.6-13.8 4.3-17 10.5-3.5 6.9-1.7 15.2 0.8 22.5 1.6 4.6 3.8 9.4 7.9 11.8 3.3 1.9 7.4 2 11.2 2 16.8-0.1 33.7-1.1 50.4-3.1-16.1 2.2-31.4 10.2-42.5 22.1-2.3 2.5-4.5 5.4-4.6 8.7 0 4 3 7.2 5.9 10q11.5 11.5 23.1 23c4.6 4.5 9.3 9.2 15.2 11.9 5.9 2.7 13.2 3.1 18.5-0.6 5.9-4.1 7.7-12 8.2-19.2 1.4-17.6-2.1-35.5-9.9-51.4 18.2 14.3 44.3 18 65.7 9.2 6.2-2.6 12.2-6.3 15.3-12.2 4.3-8.3 1.5-18.9-4.2-26.4-7-9.1-18-15-29.5-15.8-11.5-0.7-23.2 3.8-31.3 11.9 0.7-23.9-5.7-48.4-20.3-67.3-4.1-5.5-10.1-10.8-16.9-9.7-6.9 1.1-10.8 8.5-12.5 15.3-3.3 13.8-1.3 28.4 3.4 41.8 3.4 9.8 10.5 18.8 13.2 28.5-9.8-7.1-18.3-14.7-29.8-19.5z"/>
		<path id="&lt;Path&gt;" class="s1" d="m173.8 256.9c-6.6 4-13.1 8.6-16.3 15.5-3.4 7.2-2.6 15.5-1.6 23.3 1.4 10.4 3 21 7.4 30.6 4.4 9.6 11.8 18.2 21.7 21.8 3.1 1.1 6.9 1.5 9.2-0.8 2.6-2.5 1.8-6.9 3.6-10.1 2.7-4.9 10.2-4.5 15.1-1.6 4.9 2.9 8.7 7.6 14 9.7 9.7 3.8 21-2.8 26.1-11.9 5.1-9.1 5.5-20 5.8-30.4q0.6-22.5 1.3-45.1c0.2-9-0.1-19.2-6.8-25.2-4.9-4.3-12-5.1-18.3-3.6-5.5 1.2-10.4 3.9-15.2 6.6-4.8 2.8-9.9 4.2-15.1 6.2-10.7 4-21.1 9.1-30.9 15z"/>
		<path id="&lt;Path&gt;" class="s0" d="m151.6 262.7c-9.4-5.9-16.9-14.5-23.7-23.3-6.9-8.8-13.4-17.9-21.5-25.5-3.7-3.4-8.8-6.7-13.4-4.7-2.6 1.1-4.2 3.6-5.3 6.1-3.4 8.3-1.6 18 2.7 25.9 4.3 7.8 10.9 14.2 17.3 20.4-10.3 2-20.9 4.1-29.5 10.1-2.7 1.9-5.2 4.3-6.5 7.3-3.1 7.3 2.2 16 9.5 19.1 7.2 3.1 15.6 1.9 23.2-0.2 7.6-2 15.1-4.9 23-5.2-7 1.9-13 6.7-17.3 12.5-4.4 5.8-7.2 12.6-9.3 19.6-0.9 3-1.6 6.4 0 9 2.4 4 8.4 3.6 12.7 1.9 10.2-4.1 18-12.8 24.1-22 6.2-9.1 11.3-19 18.4-27.5 3.1-3.5 6.5-6.8 10.4-9.5 1.5-1 12.1-5.1 12.3-6 0.3-1.2-10.8-1.6-12.6-2-5.2-1.1-10.1-3.2-14.5-6z"/>
		<path id="&lt;Compound Path&gt;" fill-rule="evenodd" class="s2" d="m257.7 66.7c1.3 2.8 2.3 5.7 2.8 8.8q2.1-5.9 4.7-11.6 0.8-1.7 1.6-3.4c0.5-4 0.7-8.1 1.2-12.1 1.2-8.5 4.5-16.4 9.9-23 2.6-3.1 5.6-5.9 8.9-8.2 3.1-2.2 6.5-4.1 10.1-5.3 0.4-0.3 0.8-0.5 1.4-0.4 1.1 0.3 1.2 1.9 1.5 2.9 0.6 2.6 1.2 5.3 1.7 8 0.8 5 1 10.2-0.2 15.2-1.1 4.5-3.5 8.4-6.9 11.5-3.2 2.8-7.1 4.8-10.9 6.7-4 2.1-8 4.1-11.5 7-2.7 2.1-5 4.5-7.1 7.2-3.3 7.7-5.9 15.8-7.3 24.1q-0.2 1.1-0.3 2.3c1.5-3.1 3.4-5.9 5.7-8.4 1.9-2.1 3.9-3.9 6.1-5.4l0.2-0.3c2.4-2.9 4.9-5.7 7.8-8.1 2.6-2 5.4-3.6 8.6-4.4 3.7-1 7.6-0.7 11.3 0 7.4 1.5 15.2 5 22.8 2.7 0.8-0.2 1.6 0.8 0.8 1.4-3.3 2.3-6.6 4.6-10.1 6.5-3 1.7-6.3 3-9.7 3.7-3.4 0.7-7 0.6-10.5 0.4-7.1-0.6-14.4-2.1-21.4 0.2q-0.2 0.1-0.3-0.1c-4.9 3.8-8.9 8.7-11.6 14.3-0.8 7.5-0.5 15.1 0.9 22.5 1.7 8.9 4.8 17.4 8.7 25.5 2.3 4.7 4.8 9.2 7.4 13.6q-0.8-2.5-1.5-5c-1.4-5.2-2.5-10.5-2.9-15.9-0.7-9.9 0.6-20.1 4.8-29.3q1.5-3.3 3.5-6.4c1.2-1.9 2.6-3.7 4.4-5 1-0.8 2.1-1.4 3.3-1.7 0.2-0.2 0.5-0.2 0.7-0.1q1-0.2 2.1-0.2c2.1 0.2 4.1 1.3 5.7 2.6 1.8 1.4 3.2 3.1 4.6 4.9q1.3 1.5 2.4 3.1 1.5 2.1 2.7 4.4c2.4 3.9 4.6 8 6.3 12.2 2 4.9 3.5 10 4.2 15.3 0.7 5 0.9 10.3-0.2 15.4 5.6-1.4 11.4-2.3 17.2-2.4 8-0.1 17.7 1.6 22.5 8.8 1.2 1.8 1.9 3.9 1.7 6-0.2 2.3-1.4 4.3-2.8 6.1-2.9 3.5-6.4 6.6-10 9.3-3.6 2.7-7.6 5.1-11.7 6.9-2.2 1-5 2.1-7.6 2q4.4 3.4 8.3 7.4c3.1 3.2 5.8 6.7 8.2 10.4 2.3 3.5 5.4 8.3 2.3 12.2-1.4 1.7-3.3 2.9-5.2 4q-3 1.8-6.2 3.1c-4.3 1.7-9 2.7-13.6 3-4.6 0.2-9.3-0.3-13.8-1.6-3.7-1-7.4-2.5-10.7-4.7q-0.5 6.1-1.9 12c-1.2 5.1-2.9 10.2-5.1 15-1.8 3.7-3.9 8.9-8.2 10.2-4.8 1.4-8.6-2.9-11.3-6.2-3.1-3.9-5.8-8.1-8-12.6-3.9-7.8-6.7-16.7-7.3-25.5q-0.4 1-0.9 2-0.2 0.6-0.5 1.2-0.1 0.6-0.2 1.1c0.1 3.7 0.5 7.3 1.3 10.9q0.2 0.6 0.4 1.3c1.6 5.2 3.8 10.4 6.3 15.2 3.4 6.7 7.4 13 11.4 19.3q0 0 0.1 0c3.5 2.5 7.9 3.9 12.2 4.7 2.8 0.5 5.6 0.7 8.4 0.9q0.1-0.2 0.5-0.3c2.3-0.5 4.8-0.6 7.2-0.8 2.3-0.2 4.7-0.3 7-0.1 3.4 0.3 6.9 1.2 9.9 2.9 3 1.6 5.4 4.1 7 7.1 1.8 3 2.7 6.4 3.2 9.8 0.3 2.1 0.4 4.1 0.4 6.1 0 2.1 0 4.2-0.3 6.3h-0.1q0 0.5 0 0.9c-0.1 0.5-0.5 0.6-0.8 0.5-0.1 0.3-0.5 0.3-0.6 0-0.5-1.7-1-3.3-2.1-4.7-1.1-1.4-2.6-2.5-4.1-3.4-2.8-1.6-5.7-2.8-8.5-4.4q-3.9-2.3-7.3-5.2-3.4-2.9-6.3-6.3-1.4-1.7-2.7-3.5c-0.8-1-1.8-2.2-2.3-3.5-5.9-0.5-12.3-1.2-17.5-3.8 2.9 2.7 6.2 5.1 9.3 7.5 8.2 6.2 16.5 13.3 18.5 23.9 1 5.3 0.5 10.8 0.1 16.2-0.3 2.8-0.5 5.6-0.6 8.3-0.1 2.8 0.1 5.6 0.3 8.4 0 0.4-0.5 0.6-0.7 0.2-0.2 0.1-0.3 0-0.4-0.2-0.2 0.2-0.6 0-0.6-0.3q0-2.1-0.2-4.2-1.1-6-3.4-11.7c-3.8-9.3-9.5-17.7-14.9-26.1-5.1-7.8-10.1-15.8-13-24.7q-1.4-1.9-2.7-3.9c-4.7-7-8.9-14.4-12-22.3-1.6-3.8-2.8-7.9-3.6-12q-0.4-1.5-0.7-3-0.3 0.8-0.7 1.5-0.5 1.1-1.1 2.2c-0.2 0.3-0.4 0.8-0.7 1.1-1 2.8-1.9 5.6-3 8.3 2.5 1.6 4.9 3.4 7 5.5q0.2 0 0.3 0.2 0.3 0.3 0.6 0.7c2.9 3.1 5.4 6.7 7.1 10.6 2 4.5 3.2 9.3 3.4 14.2 3.8 8.4 12 13.8 17.1 21.3 5 7.2 7.9 15.9 8.3 24.7 0.1 3.5 0.3 8.6-3.8 10.1-3.6 1.2-7.5-1-10.4-2.9-9.5-6.2-17.2-15-22.3-25.1 1.2 9 0.1 18.2-3.1 26.7q-1.1 2.9-2.6 5.6 0 0 0 0 0 0 0 0c-1.9 3.5-4.1 6.7-6.9 9.5-3.7 3.8-9.9 8.3-15.5 6.2-2.6-0.9-4.3-3.3-5.5-5.8-1.4-2.9-2.6-6-3.8-9q-0.6-1.3-1.1-2.6c-4.2 4.7-9.7 8.1-15.8 9.8-2.8 0.8-5.6 1.3-8.5 1.3-2.9 0.1-6.1-0.1-8.6-1.9-2.2-1.6-3.4-4.3-4.2-6.8-1-3.3-1.9-6.7-2.8-10.1q-1.5-5.2-2.9-10.3c-1-3.3-1.9-6.7-1.7-10.2 0.2-2.8 1.2-5.4 3.2-7.4q0.7-0.7 1.5-1.3-2 0-4-0.1c-1.9-0.1-4-0.2-5.8-1.2-1.8-1-2.7-2.9-2.4-4.9 0.3-2.2 1.5-4 2.8-5.7 2.9-3.4 6.5-6 10.3-8.3 3.8-2.2 7.9-4.1 11.9-5.9-3.1 0.9-6.3 1.7-9.6 2.4 0 0.1 0 0.2-0.2 0.3-1.5 0.1-3 0.4-4.5 0.6q-2.2 0.4-4.3 0.9c-0.1 0.2-0.2 0.4-0.4 0.5-1.4 0.7-3 1.2-4.6 1.8q-0.9 0.3-1.9 0.6-0.2 0.2-0.4 0.3c-1.4 0.9-2.7 1.9-3.9 3.1-2.5 2.4-4.5 5.2-6 8.3-0.9 1.7-1.6 3.6-2.3 5.5-0.8 6-0.5 12 0.9 18 0.7 2.9 1.7 5.7 2.8 8.5 1.8 0.6 3.6 1.9 5.2 3q2.6 1.8 4.8 4c5.5 5.4 9.3 12.2 10.7 19.8 0.8 4.1 0.9 8.4 0.2 12.5-0.3 2-0.8 4-1.4 6-0.5 1.3-1 2.7-1.7 4-0.3 0.7-0.6 1.5-1.1 2.2-0.3 0.6-1.3 0.3-1.4-0.4-0.5-4-2-7.8-3.7-11.3-6-12-17.3-24.3-12.9-38.7-0.2-0.2-0.3-0.5-0.2-0.7-1.5-3.8-2.7-7.8-3.4-11.8-0.5-3.2-0.8-6.5-0.5-9.8-0.9 3.2-1.7 6.4-2.5 9.6q-1.4 5.6-3.1 11.2c0.4 0 0.8 0.2 0.9 0.7 1.1 4.4 1.4 8.9 0.9 13.4-0.7 7.6-3.5 14.9-8.1 21-2.1 2.8-4.6 5.3-7.4 7.5-2.3 1.9-5 3.7-7.9 4.8l-0.1 0.1h-0.3q-0.4 0.1-0.8 0.3c-0.3 0.1-0.5-0.3-0.4-0.5v-0.1c-0.3-3.8 0.4-7.5 1.4-11.2 3.5-13.5 12-25 20.3-36q2.3-7.9 4.2-16c1.4-5.5 2.9-11.2 5.4-16.3q-0.9 1.3-1.8 2.7c-5.2 8.2-8.5 17.4-13.6 25.8-4.8 7.9-11.5 14.4-20 18.2q-3.1 1.4-6.3 2.3c-2 0.5-4.1 1-6.1 0.9-1.8-0.1-3.6-0.8-4.5-2.5-1-2-0.2-4.3 0.6-6.2 1.8-4.3 4-8.4 6.7-12.2q2-2.9 4.3-5.5h0.1c-4.7 2.4-9.8 4-15 4.9q-3.7 0.6-7.5 0.7c-2 0-4.2-0.1-5.9-1.3-3.7-2.8-1.7-8 0.1-11.3 3.6-6.6 9.3-12.4 16.1-15.7q-0.6 0.1-1.2 0.1c-0.1 0.2-0.2 0.4-0.5 0.5-0.8 0.1-1.7 0.2-2.6 0.2q-1.3 0-2.6 0-2.5 0.1-5.1 0.5-0.4 0-0.7 0.1c-1.9 1.7-3.9 3.4-5.9 5.1-3.7 2.9-7.7 5.5-12.2 7-2.3 0.8-4.5 1.4-6.9 1.9-2.1 0.5-4.3 1-6.5 1.1q-0.2 0.1-0.4 0.3c-0.2 0.2-0.5-0.1-0.4-0.3-0.2-0.2-0.3-0.5 0-0.6l0.3-0.1v-0.1c0.4-1.3 1.4-2.6 2.2-3.7q1.3-1.6 2.8-3.1c3.7-3.7 8.2-6.4 13.1-8.1 2.4-0.8 4.9-1.4 7.4-1.6h0.2q-1.3-0.2-2.6-0.3c-3.5-0.3-7-0.4-10.5-0.4-2.3 0.1-4.6-0.2-6.9-0.3q-1.2 0.1-2.4 0.4c-2.4 0.8-4.6 2.5-6.3 4.5-2.6 3.1-4.1 6.9-6.3 10.3-2 3.2-4.7 5.9-7.9 8.1-7 4.6-15.4 6.2-23.5 7.8-0.5 0-0.8-0.3-0.9-0.6l-0.1-0.1c-0.3 0.2-0.7-0.1-0.6-0.5 1.7-4.5 3.6-8.9 6-13.1 2.2-3.7 4.7-7.1 7.8-9.9 3.4-3 7.4-5.2 11.6-6.6 4.6-1.5 9.3-2.1 14.1-2.3q3.9-0.1 7.9 0.2 0.3 0 0.7 0 0.7-0.1 1.4-0.2 0.6 0 1.3-0.1h-0.1q-2.8-0.5-5.5-1.4c-13.4-4.5-24.2-15.5-30.9-27.7-0.3-0.6 0.3-1.2 0.9-1.2q0.3 0.1 0.6 0.1c1.8-0.5 3.8-0.6 5.6-0.6q3.4-0.1 6.7 0.5c7.5 1.5 14.2 5.4 19 11.2 2.4 2.8 4.2 6 5.5 9.4 0.6 1.6 1.1 3.3 1.8 5 0.7 1.6 1.7 3 2.8 4.4l0.1 0.3h0.2c4 0.3 7.9 0.9 11.8 1.4 5.3 0.8 10.7 1.6 16.1 1.5q-1.1-0.4-2.2-0.9-3-1.4-5.8-3.1c-3.7-2.3-7.2-5.2-10.1-8.5-1.2-1.4-2.4-3.1-2.6-5.1-0.2-1.8 0.4-3.5 1.5-4.9 1-1.5 2.5-2.7 4-3.8q1.8-1.3 3.6-2.5c-0.8-0.9-1.3-2.1-1.9-3.2q-0.8-1.6-1.4-3.4c-0.9-2.2-1.6-4.6-2-7q-0.6-3.2-0.7-6.4c-0.1-1.8-0.4-4.3 1.3-5.4 1.5-0.9 3.4-0.4 4.9 0q2.7 0.6 5.2 1.7c3.4 1.4 6.6 3.5 9.4 6q1.7 1.6 3.2 3.4c-1.1-5.4-1.2-10.9-0.3-16.4 0.5-2.4 1.1-5.6 3.9-6.3 2.9-0.6 5.6 2.3 7.5 4.1 4.5 4.4 8 9.6 11.2 14.9 2.9 4.7 5.7 9.5 8.8 14.1 0-1.6 1.2-2.7 3-2.6 0.9 0 1.8 0.4 2.6 0.8 1.2 0.6 2.4 1.3 3.6 2 2.4 1.3 4.7 2.6 7 3.9 4.5 2.6 9.1 4.8 14.1 6.3 4.8 1.4 9.7 2.2 14.7 2.4 4.9 0.2 9.9-0.2 14.8-1.2 4.1-0.9 8.1-2.2 12-3.8q-1 0.2-2 0.4c-8.6 1.2-17.4 1.2-26 0-2.1-0.3-4.1-0.6-6.2-1.1-1.5-0.4-3.2-0.9-4.5-1.9-1.2-1.1-2-2.6-1.8-4.3 0.2-1.8 1.5-3.4 2.8-4.7 1.4-1.3 3.1-2.3 4.8-3.3q2.6-1.5 5.3-2.8c3.7-1.7 7.6-2.9 11.6-3.7 3.9-0.8 7.9-1.2 11.9-1.1 3 0 6.1 0.3 9.1 1 0.4-0.3 1-0.3 1.2 0.3q0.1 0 0.1 0c0.4-1.2 1.3-2.2 2.5-2.9 2.2-1.2 5-1.5 7.5-1.7 5.4-0.4 10.8 0.3 15.9 2q1.1 0.3 2.1 0.8c4.5-5 8.4-10.5 11.5-16.4q0-1.4 0.1-2.9v-0.1c-1.4 1-2.9 1.8-4.4 2.5-3 1.5-6.2 2.5-9.4 3.2-6.4 1.4-12.8 1.4-19.2 1-3.5 2.4-7.6 3.9-11.8 4.7-8.1 1.5-16.4 0.5-24.6-0.4-4.4-0.4-8.9-0.8-13.4-0.8q-3.4 0-6.7 0.5c-2.3 0.4-4.5 1-6.7 1.6-0.2 0-0.3-0.1-0.4-0.2q0 0 0 0h-0.1-0.4l-0.1-0.1c-0.2-0.1-0.3-0.3-0.2-0.5 0-0.3 0.3-0.6 0.6-0.7q0.3-0.1 0.5-0.2 0 0 0.1 0 0 0 0 0l0.3-0.1c2.1-4.1 5.5-7.5 9.3-10.1 7.9-5.5 18-7.4 27.4-5 4.5 1.2 8.7 3.4 12.9 5.4 4.1 2 8.2 3.6 12.6 4.5 0.5-0.3 1-0.1 1.2 0.3q0.4 0 0.8 0c6.3 0.5 12.7 0.3 18.9-1.1 2.9-0.7 5.7-1.7 8.4-3 1.8-0.8 3.4-1.9 5-3.1-2.7 1-5.5 1.7-8.2 2.3-3.6 0.7-7.2 1-10.9 1-6.5-0.1-13.1-1.3-19.1-3.7-4.4-1.7-8.4-4-12.3-6.6q-4.6-0.5-9.1-1.8c-11.2-3.6-21-11.3-26.8-21.5-0.2-0.3 0-0.9 0.4-1 3.4-1 7.1-1.3 10.7-0.8 6.4 1 12 4.3 16.1 9.4 4.1 5 6.8 11 11.2 15.7 3.7 2.3 7.6 4.3 11.8 5.7 6 2.1 12.6 3.1 19 2.9q4.9-0.2 9.7-1.2 0.2 0 0.5-0.1c-6.1 0.5-12.4-0.3-18.2-2.2-3.2-1-6.3-2.3-9.3-3.8-2.7-1.4-5.5-2.9-7.8-4.9-2.2-1.8-3.9-4.2-3.6-7.2 0.3-3.1 2.5-5.7 4.6-7.9 4.1-4.6 9.2-8.1 14.6-11q1.5-0.8 2.9-1.5-0.9-0.6-1.8-1.2c-6.7-5-11.5-12.2-13.8-20.1-1.1-4-1.6-8.2-1.2-12.3 0.2-2.2 1-4.1 3-5 1.8-0.9 3.9-0.9 5.9-1 8.4-0.1 16.8 1.2 24.8 3.8 8 2.7 15.6 6.7 22.3 11.9q5 3.8 9.3 8.4c1.7 1.9 3.4 3.9 4.8 6-0.3-1.2-0.7-2.4-1.2-3.6-4.7-6.8-9-14.1-12.5-21.6q-1.2-2.6-2.2-5.2l-0.2-0.2q-0.2-0.3-0.4-0.6-0.3 0.1-0.6 0c-4-1.2-7.8-2.8-11.3-4.8-12.5-7.2-22-19.3-25.6-33.3v-0.1q-0.1-0.5-0.3-1c-0.1-0.6 0.6-1 1.2-0.9 3.7 1.2 7.3 3 10.5 5.1 11 7.2 18.2 18.3 24.4 29.6-1.6-4.8-2.9-9.7-3.7-14.7q-0.7-4.6-0.8-9.2c-4-4.1-6.5-9.3-8.4-14.6q-0.7-1.9-1.3-3.9c-3.5-2.2-6.8-4.9-9.7-7.9-2.6-2.7-4.9-5.7-6.8-8.9-2.2-3.5-3.7-7.3-5.3-11.1-1.5-3.6-3.3-7.3-6-10.2-1.2-1.4-2.6-2.6-4.1-3.5-1-0.6-2.1-1.1-3.2-1.4q-0.3-0.1-0.5-0.1-0.4 0-0.5-0.3-0.4-0.1-0.7-0.2c-0.2 0-0.2-0.3-0.2-0.5-0.5-0.4-0.2-1.6 0.7-1.5 5.4 0.5 10.9 1.2 16.1 2.6 8 2.3 15.7 6.8 19.7 14.3 4.6 8.5 3.8 18.9 2 28.1l-0.1 0.3c1.9 6.3 4.3 12.4 8.2 17.6-0.1-5.8 0.5-11.7 1.6-17.4q1.1-5.4 2.8-10.6c0.1-2.2-0.1-4.4-0.5-6.6-0.9-4.1-2.9-8-5.1-11.6-2.8-4.6-6.2-8.7-9.3-13.2-3.1-4.3-5.8-9-7.2-14.2-2.9-11.2-0.1-22.9 4.4-33.3 0.2-0.6 1-0.7 1.4-0.2 2.9 3.2 5.4 6.9 7.3 10.9 1.6 3.5 2.8 7.2 3.4 11 0.7 4.4 0.7 8.9 0.6 13.4-0.3 8.7-0.9 17.6 2.1 26v0.2q0.9 2.1 1.7 4.2zm-5.6-9.3c-1.5-2.7-3-5.4-4.3-8.2-2.5-4.9-4.4-10.1-5.7-15.4-1.3-5.3-2.1-10.8-2.2-16.2-0.1-3.1 0-6.2 0.3-9.2-1.3 3.9-2.3 7.9-2.7 12-0.6 5.7-0.1 11.5 1.9 16.8 1.8 5.1 4.9 9.6 8.1 13.9 1.5 2.1 3.1 4.2 4.6 6.3zm1.5 0.3c-0.8-2.8-1.2-5.7-1.3-8.7-0.5-8.8 0.9-17.6-0.7-26.3-1.3-7.2-4.6-14-9.3-19.5-0.7 5.6-1.2 11.3-0.8 17 0.3 5.4 1.2 10.8 2.7 16.1 1.5 5.4 3.7 10.6 6.4 15.6 0.9 1.9 2 3.8 3 5.8zm-33.2-9.2c2 0.8 3.9 1.8 5.7 3 4.6 2.9 8.3 7 11 11.6 2.8 4.9 4.5 10.3 6 15.7 0.9 3.1 1.7 6.3 2.6 9.4 0.3-4.7 0.9-9.4 0.5-14.1-0.4-4.4-1.5-8.8-3.8-12.5-2.1-3.3-5-6-8.3-8-4.2-2.6-8.9-4.1-13.7-5.1zm23.8 39.9c-2.5-8.6-4.3-17.4-9-25.1-2.8-4.6-6.6-8.3-11.2-11.1-3-1.8-6.3-3-9.7-3.7 1.5 1 2.9 2.2 4.1 3.5 5.5 6.1 7.1 14.6 11.3 21.5 3.6 6 8.6 11.1 14.5 14.9zm-46.9 120.5c-1.5-1.7-2.9-3.6-4.2-5.5-3.6-5.3-7.1-10.8-12.8-13.9-5.1-2.8-11.3-3.6-17-2.2h0.1c6.3 2.3 12 5.9 17.4 9.7 5.5 3.9 10.8 8.2 16.5 11.9zm-2.3 0q-0.6-0.4-1.2-0.8c-9.8-7.1-18.9-15.6-30.3-20.2q2.1 3.5 4.8 6.5c7 7.6 16.5 12.9 26.7 14.5zm-42.1 20c2.9-1.2 6-2.1 9-2.9q5.7-1.4 11.4-2.3c6.8-0.9 13.7-1.2 20.6-0.8 3.6 0.2 7.2 0.5 10.9 0.9-1.8-0.7-3.4-1.6-5.1-2.4-4.1-2-8.2-4.2-12.7-5.3-4.7-1.2-9.7-1.2-14.5-0.2-4.4 0.9-8.6 2.8-12.2 5.5-2.9 2.1-5.3 4.7-7.4 7.5zm58.5-3.2c-6.2-0.5-12.4-1.3-18.6-1.5-7-0.3-14.1 0.2-21 1.3q-5.2 0.8-10.2 2.2-1.4 0.4-2.9 0.8c2.2-0.3 4.3-0.4 6.4-0.4 8.6-0.2 17.1 1.5 25.6 1.7 7.1 0.2 14.5-0.6 20.7-4.1zm-154.3 56.1c-6.8-4.1-11.4-10.6-16.6-16.2-4.6-5.1-10.3-9.8-17.3-10.6q2.6 4.5 5.8 8.5c4.3 5.3 9.5 9.9 15.4 13.3 2.8 1.7 5.8 3 8.9 4q1.9 0.6 3.8 1zm4.5 0.6c-0.7-0.8-1.3-1.9-1.8-2.8-0.8-1.8-1.4-3.7-2.1-5.5-2.6-6.5-7.3-12-13.3-15.6-3.4-1.9-7.1-3.2-11-3.8q-2.8-0.5-5.7-0.4c1.9 0.6 3.7 1.5 5.4 2.6 10.4 6.5 16.5 20.3 27.7 25.4q0.4 0.1 0.8 0.1zm-14.6 5c-3.3 1.1-6.5 2.5-9.6 4.2-5.6 3-10.6 6.9-15.3 11.1q-3.6 3.2-7 6.6c-1.8 1.8-3.6 3.7-5.5 5.4 4.5-0.9 8.9-1.8 13.1-3.3 3.6-1.3 7.1-3 10.2-5.5 3.1-2.5 5.2-5.7 7.2-9.2 1.9-3.4 3.8-6.9 6.9-9.3zm0.5-2.1q-1.5 0.1-2.9 0.1c-8.8 0.5-17.7 2.9-24.3 9.1-5.3 5.2-8.5 11.9-11.7 18.6 1.9-2.2 4-4.2 6-6.1 2.6-2.6 5.3-5.1 8.1-7.5 7.3-6.1 15.6-11.4 24.8-14.2zm30.3 4c-10.1 2.1-19.5 6.7-27.2 13.5 2.3-0.6 4.6-1 6.9-1.6 2.9-0.7 5.7-1.7 8.4-3.1 4.5-2.2 8.2-5.5 11.9-8.8zm-2.4-1q-0.9 0-1.8 0.1c-4.9 0.6-9.7 2.3-13.8 5-2.1 1.3-4 2.8-5.8 4.5q-1.2 1.3-2.4 2.8-0.3 0.4-0.6 0.8 2.7-2.5 5.6-4.6c5.2-3.6 10.8-6.4 16.9-8.2q0.9-0.2 1.9-0.4zm41.9 76.6c4.6-5.3 7.5-12 10.1-18.4 3-7.5 5.6-15.1 7.9-22.7q-2 2.7-4 5.4c-4 5.5-7.8 11.3-10.5 17.5-1.4 3.1-2.5 6.3-3.3 9.5-0.8 3.1-1.2 6.3-1.6 9.5q0.7-0.4 1.4-0.8zm20.4-44.1q-1.3 4.3-2.7 8.5c-2.4 7-5 14-7.9 20.8-2.2 4.9-4.7 9.7-8.2 13.8 2.1-1.3 4.1-2.6 5.9-4.2 5.3-4.6 9.4-10.5 11.7-17.1 2.4-7 2.8-14.6 1.2-21.8zm26.7 32.9c-4-10.5-10.4-19.9-15-30.1q-0.2-0.5-0.4-1.1c-0.7 3.3-0.5 6.7 0.2 9.9 2.9 12.9 13.7 22.4 16.5 35.3 1.6-4.5 0.4-9.7-1.3-14zm-14.1-32c3 6.9 6.8 13.4 10.3 20.1 2.5 4.8 5 9.7 6.5 15 0.5 1.9 0.9 3.9 0.9 5.9q0.8-2.9 1.1-5.8c0.8-7.8-1-15.7-5.1-22.4-1.8-3-4.1-5.8-6.8-8.1q-2-1.8-4.3-3.2c-0.8-0.6-1.7-1-2.6-1.5zm97.6-73.6c-3.2-0.2-6.3-0.4-9.6 0.2-3.5 0.7-6.8 2-9.9 4 1.7 1.5 3 3.2 4.1 5.1 0.3-0.3 0.7-0.6 0.9-0.9q0.9-0.9 1.9-1.7 2-1.8 4.2-3.1 2.2-1.4 4.6-2.3c1.2-0.5 2.6-1.1 3.9-1.2q-0.1-0.1-0.1-0.1zm0.7 0.7c-1.3 0.7-2.8 1-4.1 1.5q-2.3 1-4.5 2.4-2.1 1.3-4 3-1 0.8-1.9 1.8c-0.3 0.3-0.6 0.8-0.9 1.1 1.4 2.5 2.4 5.3 3.3 8.2 1.6 5.5 2.8 11.4 5.9 16.3q1 1.5 2.3 2.9 0.2 0 0.4 0.1c1.3-1.9 2.3-4 2.9-6.2 1.5-4.8 1.8-10 2-15 0.1-5.3-0.3-10.7-1.3-16q0 0-0.1-0.1zm-86.9 43.1c6.2-0.1 12.2-2.3 18-4.1 10.3-3.2 20.7-6.9 29.8-12.8 6.9-4.6 13.1-10.3 17.3-17.5-0.4-0.5-0.9-1.1-1.4-1.4-3 2.9-6.4 5.4-10.1 7.6-8.6 5.1-18.3 8.1-27.6 11.8-4.8 1.9-9.6 4-14.1 6.6-4.5 2.6-8.7 5.8-12.5 9.3q0.2 0.3 0.6 0.5zm1.2-35.1q0-0.3 0.4-0.4c4.3-1.7 8.8-3 13.4-4.1 8.1-1.9 16.3-3 24.6-3.2q6.1-0.1 12.2 0.5 0.5 0.1 1 0.1-0.1-0.1-0.3-0.1c-2.5-1.6-4.9-3.5-7-5.6-3.6-0.1-7.2-0.3-10.9-0.2-6.5 0.1-13.1 0.8-19.3 3-2.8 1-5.5 2.2-7.9 3.8-2.4 1.6-4.6 3.5-6.6 5.6q0.2 0.3 0.4 0.6zm0.9 1q0.5 0.3 1.1 0.6c4.3-0.7 8.6-0.8 13-0.9 7.8-0.3 15.6-0.4 23.3-1.3 3.7-0.4 7.3-1 10.9-1.9q1.8-0.4 3.5-1 0.3-1 0.2-2.1-0.1-0.3-0.3-0.5-1.8-0.2-3.7-0.4c-8.1-0.6-16.4-0.3-24.5 0.9-8.1 1.2-15.9 3.4-23.4 6.5q-0.1 0.1-0.1 0.1zm83.1-10.7q-0.2-0.1-0.4-0.3c-3.8-0.8-7.6-1.4-11.6-1.1-2 0.1-4 0.4-6 0.9q-1.5 0.4-3.1 1c-0.7 0.3-1.6 0.8-2.4 0.9q2.3 1.3 4.3 3.1c3.1-2 6.7-3.4 10.4-4.1 2.8-0.6 5.9-0.8 8.8-0.4zm-2.8-1.7q-2.6-1.1-5.3-2c-4.8-1.5-9.7-2.4-14.7-2.6-2.6 0-5.1 0.1-7.7 0.5-2.4 0.3-4.7 0.9-7.1 1.4 0.3 0.5 0.6 0.9 1 1.3 1.2 0.9 2.6 1.2 4 1.5 2.7 0.5 5.2 1.1 7.7 2.3q0.3 0.2 0.6 0.3 0-0.2 0.1-0.4c0.7-0.6 2.1-0.9 3-1.2q1.4-0.4 2.8-0.7c2.2-0.5 4.3-0.8 6.4-1 3.1-0.1 6.2 0 9.2 0.6zm-81.7 10c1.9-2.5 4.5-4.5 7.2-6.1 5.2-3.2 11.2-5 17.2-5.9 3.6-0.6 7.2-0.8 10.7-0.9 3.1 0 6.1-0.1 9.2 0.1q0-0.2 0.1-0.3-0.3-0.5-0.4-1c-3.4-0.6-6.7-1-10.2-1-4.2 0-8.5 0.6-12.7 1.6-3.8 1-7.4 2.3-10.9 4q-2.6 1.3-5 2.9c-1.6 1.1-3.1 2.1-4.3 3.6-0.6 0.9-1 2-0.9 3zm50.8 1.5q0.3-0.2 0.5-0.3 0.7-0.7 1.2-1.6-1.8 0.5-3.6 0.9c-7.4 1.7-15 2.1-22.5 2.3-4.1 0.1-8.1 0.1-12.2 0.2-3.5 0.1-6.9 0.3-10.4 0.5q0.4 0.1 0.7 0.2c3.8 1 7.9 1.4 11.9 1.7 11.6 0.9 23.3-0.5 34.4-3.9zm-81.7-3.9q0.1 0 0.2 0.1c3.1 2.9 6.5 5.6 10.2 7.8 10.3 6.3 22.6 8.9 34.6 7.9q2.8-0.6 5.6-1.4c-3 0.3-6 0.4-9 0.2-4.7-0.2-9.3-1-13.8-2.3-4.8-1.3-9.3-3.3-13.7-5.7-2.3-1.2-4.4-2.5-6.6-3.7q-1.8-1-3.6-2c-0.9-0.5-1.7-1-2.7-1.1-0.5-0.1-0.9-0.1-1.2 0.2zm-31-27.9q-0.1 0.4-0.2 0.8c3.8 1.4 7.1 3.6 9.9 6.4 5.7 5.5 9.4 12.6 14.4 18.7q3.1 3.8 6.7 7.3c-0.7-0.9-1.4-1.8-2.1-2.6-7-9.4-11.7-20.4-19.8-28.9q-1.5-1.6-3.2-3c-1-0.8-2.5-1.9-3.9-1.4-1.1 0.3-1.6 1.6-1.8 2.7zm6.4 107.3c2.7-1.4 5.2-3.4 7.4-5.5 4.1-3.9 7.7-8.6 10.9-13.4 3.2-4.7 6.1-9.7 9.2-14.6 2.3-3.8 4.7-7.5 7.4-11-7.5 7.7-14.3 16.1-21.4 24.1-3.9 4.5-7.9 8.9-12 13.1-3.5 3.5-7.4 7.7-12.3 8.9 0.7 0.6 1.9 0.9 3.1 0.8 2.7-0.3 5.3-1.1 7.7-2.4zm4.2-27.1q0.7-0.1 1.5-0.3c3-0.8 5.9-2.1 8.5-3.8 2.5-1.7 4.7-3.7 6.8-5.8 4.2-4.3 8.1-8.8 12.9-12.5q0.8-0.6 1.6-1.2c-3.8 1.7-7.6 3.8-11.1 6.1-4.8 3.1-9.3 6.6-14 9.7-4.5 3-9.3 5.6-14.6 7.2-2.5 0.7-5.2 1.2-7.9 1.3q-0.6 0-1.2 0 0.2 0.1 0.5 0.1c5.4 0.5 11.1 0.5 16.5-0.7h0.1c0.1-0.1 0.3-0.1 0.4-0.1zm-21.3-0.4q1.1 0.2 2.1 0.3 2.3 0.2 4.5-0.1c3.1-0.2 6-1 8.9-2.1 10.5-3.9 18.8-12 28.3-17.7q3.6-2.2 7.4-4c2.5-1.3 5-2.5 7.6-3.6q0.5-0.2 1-0.4 2.2-1.1 4.5-2.1 0.6-0.4 1.2-0.7c-3.5 1.1-6.9 2.3-10.2 3.5-10.1 3.7-20.2 7.3-30.2 11.2-4.9 1.9-9.6 4-14.2 6.4-4.3 2.3-8.3 5.1-12.4 7.8 0.4 0.7 0.9 1.1 1.5 1.5zm-0.4-7.8c-1 1.7-1.8 3.6-1.4 5.4 0 0.1 0.1 0.2 0.1 0.4 4.2-3.4 9-6.2 13.8-8.7 9.6-4.8 19.7-8.3 29.6-12.1 5.2-2 10.4-3.9 15.5-5.9q2-0.8 4.1-1.5-3 0.3-5.9 0.8c-10.2 1.7-20.3 4.1-29.9 7.7-9.1 3.4-17.8 8.1-25.5 13.8q-0.2 0.1-0.4 0.1zm68.2-24.8c-13-1.6-26.4-1.4-38.9 2.7-10.7 3.6-20.7 10.1-27.4 19.4q5.6-3.9 11.7-7c8.8-4.5 18.4-7.7 28-10.1 5.2-1.2 10.4-2.2 15.7-3q4-0.6 8.1-1 1.4-0.5 2.8-1zm-1 1.9q0.2-0.1 0.4-0.2-0.3 0.1-0.7 0.2 0 0 0.1 0.1 0.1 0 0.2-0.1zm-64.4-19.6c2.2 0.4 4.4 1.2 6.5 2.1 3.9 1.7 7.6 3.8 11.5 5.6q5.7 2.5 11.6 4.1c3.6 1 7.3 1.7 10.9 2.2q2.5-0.5 5.1-0.5 0.4 0 0.7 0c-2.2-0.7-4.4-1.6-6.5-2.6-12.6-5.5-25.7-14-40-12.4q-1.2 0.5-2.4 1.1c0.9 0.1 1.8 0.3 2.6 0.4zm46.3 12.7c-4.3-1.9-8.4-4.6-12.4-7.3-6.6-4.3-13.7-8.8-21.7-9.2-2.7-0.2-5.2 0.1-7.7 0.8q3.2 0.1 6.3 0.8c7.2 1.5 13.8 4.7 20.3 7.9 3.2 1.7 6.4 3.4 9.8 4.9 1.8 0.8 3.6 1.5 5.4 2.1zm-38.3-25.2c3.2 0 6.4 0.9 9.3 2.2 10.1 4.4 16.8 14 26.3 19.2q-0.3-0.4-0.7-0.7-2.4-1.7-4.6-3.7c-1.3-1.2-2.4-2.5-3.7-3.7q-1.8-1.7-3.4-3.6c-1.1-1.2-2.4-2.3-3.5-3.5q-1.9-1.9-3.8-3.7c-4.8-4.5-10.2-9-16.6-11q-0.1 4.3 0.7 8.5zm66.8 28.4q2.3-0.3 4.6-0.7c-7.2 0.1-14.4-1.2-21.2-3.7-6.8-2.6-13.3-6.1-18.8-10.9 0.2 0.6 0.6 1.2 0.9 1.7 1 1.7 2.3 3.3 3.7 4.6 4.5 4.6 10.7 7.4 17 8.6q0.3 0 0.5 0 2.7 0.3 5.4 0.7 3.6 0.1 7.2-0.3 0.4 0 0.7 0zm-67.3-40.9q-0.1 1.6-0.2 3.1 0.1 0 0.2 0.1c3.5 1.4 6.7 3.1 9.7 5.3 2.7 2 5.1 4.2 7.5 6.5q1.8 1.8 3.5 3.6c1.3 1.4 2.4 2.8 3.8 4 1.2 1.1 2.2 2.4 3.4 3.6q0.3 0.3 0.7 0.6-2.5-2.6-4.7-5.4c-2.5-3.1-4.7-6.4-7.1-9.7-4.3-5.8-9.4-11.8-16.5-14.1q-0.2 1.2-0.3 2.4zm5.3 19.5c8.4 0.6 15.8 5.4 22.6 10q0.4 0.3 0.9 0.6c-4-3.1-7.7-6.6-11.8-9.6-2.5-1.9-5.2-3.6-8.1-4.8-2.6-1.1-5.3-1.6-8.1-1.6q0.5 2.5 1.4 4.9 0 0.3 0 0.5 1.5-0.1 3.1 0zm-23 7.5c2.7-1.7 5.5-3.3 8.4-4.6q0 0 0 0c3.1-1.4 6.2-2.4 9.5-2.8q-0.4-1.3-0.8-2.7c-1.7-2.2-3.4-4.3-5.5-6.1-2.6-2.2-5.5-3.9-8.6-5.2q-2.3-1-4.8-1.6c-1.2-0.3-3.8-1.1-4.1 0.7-0.2 1 0 2.1 0.1 3q0.1 1.4 0.2 2.8 0.5 3 1.3 6 0.8 2.8 1.9 5.5 0.6 1.5 1.3 2.8c0.4 0.8 0.8 1.4 1.1 2.2zm-8.3 8.9q-0.3 0.6-0.5 1.2c2.4 0.4 4.7 1 7.1 1.4q3.7 0.7 7.5 1.3c8.8 1.3 17.7 1.8 26.6 1.7q5.1-0.1 10.1-0.4 1.6-0.4 3.3-0.7l0.1-0.1q1-0.4 2.1-0.7c-7.2-1.2-14.1-3.2-20.7-6.2-3.9-1.8-7.6-4-11.5-5.6-2-0.8-4-1.5-6-1.9q-1.6-0.3-3.2-0.3-0.4-0.1-0.8 0c-1.9 1-3.8 2.1-5.6 3.3-1.6 1-3.2 2.1-4.7 3.3-1.4 1-2.9 2.2-3.8 3.7zm-0.1 4.9c0.7 1.4 1.7 2.6 2.8 3.7 2.1 1.6 4.8 2.5 7.4 2.8 3.8 0.4 7.7 0 11.5-0.4 4-0.4 8-1 11.9-1.8 3.8-0.8 7.6-1.6 11.4-2.5l0.2-0.1c-6.5 0.2-12.9 0.1-19.4-0.5-4.5-0.3-9-0.9-13.5-1.6-4.3-0.7-8.7-1.4-12.8-2.7q-0.3 1.6 0.5 3.1zm22.8 15.8h0.1c5.7-5.3 12.4-9.2 19.6-12-7.8 1.8-15.7 3.2-23.6 3.7-4.1 0.3-9 0.5-13.1-1q3.1 2.7 6.6 4.7 2.5 1.5 5.2 2.6c1.7 0.7 3.5 1.2 5.2 2zm9.8 21.7h0.1l0.1-0.1v-0.1h0.1q-0.6 0.1-1.2 0.1c-3.2 0.3-6.5 0.2-9.7 0-2.5-0.1-5.5-0.3-7.4-2.1q-0.4-0.3-0.7-0.6-0.1-0.1-0.3-0.1c-0.1-0.1-0.1-0.3 0-0.4-1.3-2-0.9-4.6 0.1-6.8 1.3-2.7 3.2-5.1 5.1-7.3q1-1.2 2-2.3c-3.1 1.9-6.1 4-8.8 6.6-2.8 2.8-5.2 6.1-7.1 9.6-0.9 1.7-1.7 3.5-1.7 5.5 0 2 1.2 3.5 3.2 4 2 0.5 4.3 0.3 6.3 0.1q3.4-0.3 6.8-1.1c4.6-1 9-2.7 13.1-5zm-10.5 25.7c2.8-1 5.3-2.6 7.6-4.5 2.5-2.2 4.7-4.6 7-6.9 8.3-8.8 15.7-18.3 23.7-27.3 3.9-4.5 8-9 12.3-13.2q1.3-1.3 2.8-2.6c-4.6 2.6-8.9 5.8-12.7 9.5-4.4 4.4-8.3 9.4-13.3 13.1-3.9 2.9-8.3 4.6-13 5.5q-0.4 0.4-0.7 0.8 0 0.2-0.2 0.4c-0.1 0.1-0.2 0.2-0.4 0.3l-0.1 0.1c-2.9 3.3-5.5 6.6-7.8 10.3q-1.9 3-3.4 6.1c-0.9 1.9-2 4.1-2.3 6.2-0.1 1 0.1 1.7 0.5 2.2zm37.6-26.2c2.5-5.1 4.9-10.4 7.7-15.4-6 8.2-11 17.1-17.1 25.2-3.4 4.5-7.2 8.9-11.5 12.4-1.7 1.3-3.5 2.6-5.4 3.6 3.3-1.2 6.4-2.7 9.3-4.6 7.8-5.3 12.8-13 17-21.2zm4.6-42.2q-1.5-0.6-2.9-1.3c1.6 0.9 3.2 1.8 4.8 2.6q-1-0.6-1.9-1.3zm22.4 25q0 0 0 0c4.2-3.9 8.8-7.2 13.8-10 9.1-5 19.2-7.8 28.8-11.6 7.9-3.2 15.6-7.1 21.7-12.9q-0.5-0.2-1.1-0.3-0.8 0.2-1.6 0.3 0 0 0 0-1.3 0.5-2.6 1c-7.2 3.3-14.7 5.8-22.1 8.5-8.6 3-17.4 6.2-25.3 10.9-3.6 2.2-7.1 4.8-9.6 8.2-1.3 1.5-2.7 3.8-2 5.9zm17.8 2.7q2.6-0.3 5.2-0.7 0 0 0 0c0.7-0.8 2.2-1.1 3.2-1.3q1.8-0.3 3.6-0.6 1.8-0.2 3.6-0.4c5-1.5 9.8-3.5 14.4-5.9 1.6-1 3.1-2 4.8-2.8q0.2-0.1 0.4 0c3.7-4.2 8.1-7.5 11.8-11.7q1.2-1.3 2.2-2.7 0.1-0.5 0.2-0.9 0.2-1.2 0.4-2.3c0.2-1.4 0.2-2.9-0.2-4.2l-0.1-0.4c-2 3.3-4.4 6.4-7.2 9.1-7.5 7.4-16.9 12.4-26.6 16.1-5.4 2-10.8 3.7-16.3 5.3-4.7 1.4-9.5 2.9-14.5 3 0.6 0.2 1.2 0.3 1.8 0.4 4.4 0.5 8.9 0.4 13.3 0zm43.5 54.3c-3.9-4.4-6.2-9.9-7.3-15.6-2.3-12.2 1-24.4 5.2-35.7 2.3-6.1 4.8-12.1 7-18.2 1-2.8 2-5.7 2.7-8.5-1.5 0.3-2.8 1.1-3.8 2.3q0 0-0.1 0-0.2 0.3-0.4 0.6-0.1 0.2-0.3 0.2c-3.3 3.4-7 6.5-10.1 10.1q-0.5 0.6-0.9 1.2l-0.1 0.1q-0.1 0.1-0.2 0.2c-6.7 9-7.7 20.8-5.6 31.6 1.2 6.5 3.5 12.7 6 18.8 1.2 2.8 2.3 5.8 3.7 8.6 1 1.8 2.3 3.5 4.2 4.3zm-13.8-59.2q0 0 0 0.1 0.1-0.2 0.2-0.3l-0.1 0.1q0 0-0.1 0.1zm-39.6 19.7c0.3 1.8 0.8 3.6 1.3 5.4 1.3-3.2 3.4-6 5.8-8.5 4.9-5.1 10.9-8.6 17-12q0.9-0.5 1.9-0.9-0.5 0-0.9 0h-0.2q-0.7 0-1.3 0.1-2 0.6-4.1 1.1c-4.6 0.9-9.2 1.5-13.9 1.7h-0.2c-1.8 0.6-3.3 2-4.3 3.6-1.7 2.9-1.7 6.3-1.1 9.5zm5.1 18.8q0 0.1 0.1 0.2c1-3.9 2.7-7.6 4.7-11 3.8-6.7 8.9-12.7 14.6-17.9 2.6-2.3 5.2-4.4 7.9-6.5q-0.9-0.1-1.8 0-0.4 0-0.8 0c-5 2.5-10.1 4.9-14.7 8.1-2.8 1.9-5.5 4.1-7.8 6.6-2.3 2.4-4.2 5.1-5.7 8q0.4 1.5 0.8 2.9 1.4 4.8 2.7 9.6zm7.8 13.9q0.1 0 0.3 0c4.4-0.6 8-3.7 10.4-7.4 2.5-4.1 3.5-8.9 4.5-13.5 1.1-4.8 2.2-9.7 3.6-14.4 1.3-4 2.8-7.8 4.7-11.5-0.2-0.9-1-1.6-1.9-1.9q-0.1 0-0.2 0.1c-6.4 4.8-12.6 9.9-17.8 16-2.4 2.9-4.6 5.9-6.5 9.1-1.8 3.3-3.3 6.8-4.5 10.4q0 0.1-0.1 0.1c0.7 2.6 1.3 5.2 2.3 7.6 1 2.5 2.5 4.5 5.2 5.4zm28.7-10.5l0.2-0.2c-1.8-4.9-3.4-9.9-4.3-15-0.9-5-1.1-10.3-0.3-15.5q-0.1-0.6 0-1.3c0-0.8 0-1.7 0-2.5-2.2 4.3-3.8 8.9-5.2 13.5-1.4 4.8-2.4 9.8-3.6 14.6-1.1 4.4-2.6 8.8-5.5 12.3-2.1 2.4-4.8 4.3-7.9 5 2 0.3 4 0.1 5.9-0.1 2.6-0.3 5.2-0.9 7.7-1.8 5-1.9 9.5-5 13-9zm-3.2-36.2q0.1-0.6 0.3-1.1-0.2 0.4-0.4 0.8 0 0.1 0.1 0.3zm20.7 53.3c-2.5-5.6-3.9-11.8-4.8-17.8-1.7-11.7-0.6-23.5 1.4-35.1 0.7-4.2 1.6-8.4 2.7-12.6-4.2 11.4-9.5 22.5-11.2 34.6-1.6 10.8 0.1 22.6 7.3 31.3q0 0.1 0.1 0.1 0.3 0.1 0.7 0.2c1.3 0 2.5-0.2 3.8-0.7zm4.2-2.2q0.7-0.5 1.4-1.1-0.1-0.1-0.1-0.2c-1.6-6.2-2.7-12.5-3.4-18.9-1.1-11.3-0.8-22.7 0.8-33.9 1.1-6.7 3.1-13.8 3.4-20.8q-0.5-0.3-1.1-0.5-0.5 0.1-1 0-0.1-0.1-0.2-0.1c-0.6 2.9-1.5 5.8-2.3 8.7-3.1 11.6-5.7 23.4-6.2 35.5-0.2 5.8 0 11.6 0.8 17.3 0.8 5.5 2.3 10.8 4.2 16 1.3-0.5 2.6-1.2 3.7-2zm6.2-6c2.5-3.1 4.5-6.7 6.1-10.3 0.3-3.3 0.2-6.7-0.2-9.9-0.6-4.4-1.6-8.6-2.7-12.9-1.1-4.3-2.2-8.6-3.1-12.9q-2.1-10.3-3.4-20.7-0.1 1.4-0.3 2.8c-0.7 5.8-2 11.4-2.8 17.2q-1.1 8.5-1.2 17c0 11.3 1.4 22.5 4.1 33.5q1.9-1.8 3.5-3.8zm6.3-50.3q-0.1-0.3 0-0.5c-2-1.8-3.5-4.1-4.7-6.5-1.3-2.6-2.2-5.5-3.1-8.3q-0.1-0.4-0.3-0.8 0.4 4.5 1.1 8.9 0.9 6.7 2.3 13.3c1 4.4 2.1 8.7 3.2 13.1 1.4 5.9 2.6 12.1 2.3 18.2q0.5-1.3 0.9-2.7c3.4-11.3 2.8-23.8-1.7-34.7zm34.3 38.9q-3.7-3.2-7.2-6.6c-4.7-4.7-9.2-9.6-13.5-14.8-3.6-4.4-7.1-9-10.3-13.7 2.2 6.4 5.4 12.4 9.6 17.8 4.7 6.1 10.5 11.4 17.1 15.5 1.1 0.6 2.7 1.4 4.3 1.8zm4.1-0.8q0 0-0.1-0.1c-1.5-3.6-3.1-7.2-5.2-10.5-3.5-6-8.1-11.5-13.4-15.9-2.7-2.3-5.6-4.3-8.6-6.1q-1.5-0.8-3-1.6-0.1-0.1-0.3-0.1-1.7-0.3-3.2-1.1c1.6 2.4 3.1 4.7 4.7 6.9q5.8 8.1 12.4 15.4c4.4 4.9 9 9.5 13.6 14 1.2 0.1 2.3-0.1 3.1-0.9zm0.8-0.8c1-1.7 0.8-4.1 0.8-5.9q0-0.6-0.1-1.2c-0.4-2-1.1-4-1.9-5.8-3.1-6.7-8.4-11.9-13.1-17.4-3.8-4.3-7.4-9.1-9-14.6-0.5 3.3-1.4 6.6-2.8 9.7-0.2 0.3-0.4 0.3-0.6 0.2 0.5 0.5 0.4 1.5-0.5 1.6q-0.3 0.1-0.7 0.1 0.8 0.5 1.6 1c5.9 3.9 11.2 8.8 15.7 14.3 4.4 5.4 8.1 11.7 10.3 18.4q0.1-0.2 0.3-0.4zm-22.8-50.4q-0.1 0.8-0.1 1.7 0.2 0.1 0.3 0.4c0.6 4 2.2 7.7 4.3 11.1 3.9 6.1 9.4 11 13.7 16.8 2 2.6 3.7 5.4 4.8 8.4q0 0 0-0.1c-1.3-8.3-4.9-16.1-10.3-22.5-4.4-5.2-9.8-9.7-12.7-15.8zm-6.2-19.2q-0.8-1.3-1.6-2.5 0.5 1.2 0.9 2.3c3.6 10.9 3.3 23.4-2 33.7-0.1 0.3-0.6 0.1-0.5-0.2 1.3-3 2.2-6.1 2.9-9.2 1.1-5.6 1.2-11.3 0.3-16.8q-0.7-4.2-2.2-8.2-0.8-1.9-1.7-3.8l-0.1-0.2q0.5 3.3 0.7 6.7c0.3 5.6 0.1 11.2-0.7 16.8-0.6 4.2-1.8 8.5-4.7 11.8q0 0 0.1 0.1v0.2q1 0.9 2.1 1.6c1.1 0.4 2.2 1 3.3 1.6 1.5 0.4 3.1 0.6 4.7 0.4 0.3 0 0.5 0 0.7 0.2q-0.1-0.2 0-0.4 0.7-1.8 1.3-3.7c2.9-10 1.6-21.3-3.5-30.4zm-24.1-17.9c-5-1.2-10.2-1.5-15.3-0.6-1.9 0.3-5 0.8-5.7 2.9v0.1l0.1 0.1c0.2 0 0.2 0.2 0.3 0.3 2.5-0.7 5.3-1.1 7.9-1.3 5.1-0.5 10.3-0.2 15.4 0.9 3.5 0.7 6.9 1.9 10.2 3.4-3.9-2.7-8.3-4.7-12.9-5.8zm66 83.6c-1.1-4.4-2.6-8.7-4.4-12.8-5.5-12.3-13.7-23-21.5-33.9q1.7 4 3.8 7.8c4.8 8.8 10.8 16.9 15.7 25.6 2.4 4.2 4.7 8.7 6.4 13.3zm-24-47.2c3.6 5.1 7.3 10.1 10.7 15.2 7 10.6 13.2 22.3 15.2 34.8q0.2-3 0.5-5.9c0.4-5.4 0.8-11-0.5-16.3-1.3-5-4.2-9.3-7.8-13-5.4-5.6-12.2-9.7-18.1-14.8zm47.1 16.6c-2.3-4.1-5.6-7.7-9.6-10.2-4.8-3-10.4-3.9-16-4.5q-1.2-0.1-2.5-0.2 0.4 0.6 0.7 1.2 0.7 1.1 1.5 2.2 1.5 2.1 3.2 4c4.1 4.6 9.1 8.5 14.6 11.3 2.9 1.5 6.1 2.7 8.6 4.8 1.2 1.1 2.5 2.6 3.2 4.2-0.3-4.5-1.5-8.9-3.7-12.8zm-23.2-16.1q-0.4 0-0.9 0.1 1.7 0.2 3.3 0.4c5.3 0.8 10.4 2.6 14.6 6 4.9 3.8 8.7 9.4 10.4 15.5q-0.2-2.2-0.5-4.5c-1.2-6.6-4.4-12.9-10.8-15.8-3.1-1.4-6.6-2-10-2.1-2 0-4.1 0.1-6.1 0.4zm-14.8-162.4c-2.2 9.5-2.3 19.2-1.8 28.9 0.4 8.3 1.3 16.7 1.4 25.1q1.8-5.6 3.3-11.3c2.6-9.5 4.7-19.2 6.3-29 0.9-4.9 1.7-9.9 2-14.9 0.2-2.4 0.1-4.8-0.5-7.1q-0.4-1.7-1.1-3.3c-0.4-0.9-0.9-1.6-1.4-2.4q-1.4-0.4-2.8-0.1c-2.4 4.4-4.2 9.2-5.4 14.1zm0.6 58.2q0.8-0.7 1.7-1.4c1.2-1.4 2.5-2.8 3.6-4.3q2-2.9 3.6-6.1c4-8.3 5.1-17.6 5.2-26.7 0-4.6-0.4-9.1-0.3-13.7 0-4.2 0.7-8.3 3-11.8v-0.1q-0.2-0.3-0.5-0.7c-1.1-1.3-2.2-2.5-3.4-3.6-0.9-0.8-1.9-1.5-2.9-2.2 0.7 1.2 1.2 2.4 1.5 3.6 0.7 2.6 0.8 5.4 0.6 8.1-0.3 5.1-1.1 10.3-1.9 15.4-0.8 5.1-1.8 10.1-2.8 15.2-1.9 9.5-4.5 19-7.4 28.3zm20.6-58.5q-1.2-1.9-2.5-3.7-0.2-0.3-0.3-0.6c-2.5 4.1-2.7 8.9-2.5 13.5 0.1 4.7 0.4 9.3 0.2 14-0.2 4.8-0.8 9.6-2 14.3-1 4-2.5 7.9-4.6 11.6-1 1.8-2.2 3.7-3.6 5.4 4.3-3 9-5.6 13.9-7.7 2.7-3.9 4-8.7 4.7-13.3 0.7-4.6 1-9.3 1-13.9 0-4.8-0.5-9.7-2-14.3q-0.9-2.8-2.3-5.3zm36.6 109.5c-3.4-3.8-6.8-7.6-10.4-11.2-7-6.9-14.6-13.2-22.7-18.8q-6.1-4.1-12.4-7.8c-3.3-1.9-6.7-3.6-10.1-5.3q3.2 5.3 7 10.1c11.8 14.8 27.7 25.6 43 36.5 1.8-0.9 3.5-1.9 5.1-3.1q0.3-0.2 0.5-0.4zm-130.3-73.5c5.4-0.1 10.9 0.2 16.3 1 9.8 1.4 19.6 4.2 28.6 8.5 8.5 4 16.5 9 23.8 15q0.2-0.2 0.4-0.3 0-0.3 0-0.5-1.3-1.7-2.7-3.3-2.2-2.7-4.6-5.1c-3.1-3.2-6.6-6.1-10.3-8.6-13-9.2-29.2-14.6-45.2-14.2-1.8 0.1-4.2 0.2-5.4 1.8-1.1 1.5-1 3.8-0.9 5.7zm2.3 12c0.9 2.4 2.1 4.7 3.5 6.9q6.2-1.9 12.7-2.7c8-1.1 16-0.9 23.9 0.4 6.9 1.1 13.8 2.9 20.1 5.9q2.5 0.7 4.9 1.8-5.3-4.4-11.1-8c-8.5-5.2-17.7-9-27.3-11.7-9.4-2.6-19.2-3.9-29-3.8 0.2 3.8 1 7.6 2.3 11.2zm14.7 18c4.4-2 8.8-3.8 13.4-5.2 8.8-2.9 18.6-4.7 27.8-3.2q-2.8-1-5.6-1.9c-15-4.4-31.3-4.3-46.2 0.1 2.8 4.1 6.4 7.6 10.6 10.2zm-21.9 21.4c4.5-3.2 9.4-6 14.2-8.6 9.3-5 19-9.2 28.9-12.5 9.4-3.2 19.4-5.7 29.4-4.9q0.1-0.1 0.1-0.1-1.2-0.6-2.6-1c-6.1-1.9-12.4-2.4-18.8-1.7-6.6 0.7-13.1 2.6-19.3 4.9-10.9 4.2-22.3 9.6-29.7 19.1-1.1 1.4-2.1 3.1-2.2 4.8zm5.2 7.3c5.4 0.7 10.7-0.2 16-1.6 9.9-2.7 19.1-7.5 27.7-13.2 8-5.4 15.4-11.5 22.7-17.7-5-0.3-10 0.3-14.9 1.3-5.3 1.1-10.4 2.7-15.5 4.5q-7.3 2.6-14.4 5.8-7 3.2-13.7 7c-4.5 2.4-8.8 5.2-13.1 7.9 0.1 0.6 0.2 1.1 0.5 1.6 1 1.9 2.8 3.3 4.7 4.4zm10.5 5.4c0-0.2 0.1-0.3 0.3-0.2 5.1 2.3 10.7 2.7 16.1 1.6 9.9-2.1 17.7-8.8 24.1-16.3 3.4-3.8 6.5-8 9.6-12q2.4-3.1 5-6.1 1.4-1.7 3-3.3 0-0.6 0-1.1-0.1-0.2-0.1-0.3-0.2-0.1-0.4-0.1c-4.2 3.5-8.5 7-12.9 10.4-8.4 6.5-17.2 12.4-27 16.7-4.6 2.1-9.5 3.8-14.5 4.9-4 1-8.3 1.6-12.5 1.2q0.1 0 0.3 0.1c2.9 1.7 5.9 3.2 9 4.5zm26.5 2.6c5.8-1.4 11.1-4.3 15.4-8.4 4.3-4.2 7.8-9.4 10.8-14.6 2.6-4.3 4.8-9 5.3-14q-1.6 1.7-3.1 3.5c-1.9 2.3-3.8 4.6-5.6 7-6.3 7.9-12.8 16-21.5 21.4-5.8 3.5-12.9 5.7-19.8 5q0.2 0 0.4 0.1c5.9 1.2 12.1 1.4 18.1 0zm4.8 0.7q0-0.1 0-0.2h-0.1q0 0.1 0 0.2 0 0 0.1 0zm1.6 2.8c1 8.2 3.4 16.3 7 23.8q3.9-6.6 7-13.5c3.8-8.4 6.9-17.2 9-26.2 1.5-6.5 2.5-13.2 3.1-19.8-1.4 5-4.1 9.6-6.9 13.9-3.5 5.3-7.4 10.5-12.5 14.3-2.3 1.7-4.7 3-7.3 4 0.2 1.2 0.4 2.3 0.6 3.5zm8.6 26.8q1.8 3.3 3.9 6.3 0 0 0-0.1c1.5-2.5 3.2-4.8 4.7-7.2 1.6-2.4 3-4.9 4.4-7.4 2.3-4.5 4.3-9.2 5.4-14.1 1.2-5.2 1.7-10.6 2-15.9 0.7-8.8 1.1-18-1.8-26.4q-0.3 5.2-1 10.4c-1.2 9.4-3.4 18.6-6.5 27.5-3 8.8-7.1 17.4-11.9 25.4q0.4 0.8 0.8 1.5zm16.4 15.2q-0.1 0-0.1-0.1c1-6.6 2-13 3.1-19.5q1.3-8.7 2.7-17.3c1-5.8 1.8-11.5 2.2-17.3 0.6-7.6 0.1-15.4-2-22.7q-1.2-2.3-2.4-4.6c1.7 4.6 2.3 9.5 2.4 14.4 0.1 5.2-0.4 10.3-0.9 15.5-0.5 5.4-1.1 10.8-2.6 16-1.4 4.9-3.6 9.5-6.2 13.9q-1.9 3.3-4 6.6c-1.4 2.1-2.8 4.3-4.3 6.3q-0.1 0.1-0.3 0.1 1.9 2.7 4.1 5.2c1.4 1.6 3.2 3.3 5.4 3.8 1 0.2 2 0.1 2.9-0.3zm13.6-36.6l-0.1-0.1c-0.3-0.2-0.1-0.7 0.1-0.8 0.5-7.1 0-14.3-1.5-21.3q-0.2-0.6-0.3-1.3-0.5-1.3-0.9-2.7-0.6-2.3-1.2-4.6 0 0 0 0-0.7-2.2-1.5-4.3 0.2 1.3 0.4 2.7c1.5 11.3-0.4 22.6-2.2 33.7-1.9 11.7-3.8 23.4-5.9 35.1q1.1-0.6 2-1.6c1.4-1.7 2.4-3.6 3.3-5.6q1.7-3.4 3-7c1.8-4.7 3.1-9.7 3.9-14.7q0.6-3.7 0.9-7.5zm29.1 5.5q-5-3.5-9.4-7.6c-6.1-5.5-11.5-11.7-16.3-18.4q-2.3-3.3-4.3-6.8 0.9 3.4 1.5 6.9c1.3 3.9 2.7 7.7 4.6 11.4 2.4 4.9 5.7 9.5 9.7 13.3 0.2 0.2 0.1 0.5-0.1 0.6 4.7 1 9.6 1.2 14.3 0.6zm12.6-3.8c-4.3-2.8-8.6-5.6-12.8-8.6-7.9-5.7-15.6-11.8-22.6-18.6-3.9-3.9-7.6-7.9-10.9-12.3q0.4 0.9 0.8 1.8 1.4 2.9 2.9 5.8c7.6 13.9 18.3 25.9 30.8 35.6 4.1-0.7 8.1-1.9 11.8-3.7zm-27.3 3.1q0 0 0.1 0c-2.4-2-4.5-4.3-6.3-6.9-2.7-3.6-4.8-7.7-6.6-11.9 0.4 4.6 0.5 9.3 0.2 13.8 4 2.2 8.1 4 12.6 5zm-10.7-49.7c-3.3-0.5-6.7-1-10-1.7-0.4-0.1-0.6-0.4-0.6-0.8q-0.8-0.1-1.6-0.2c4.5 2.1 9 4.7 13.3 7.4 8.4 5.1 16.3 11 23.8 17.5 7.2 6.1 14 12.8 19.9 20.2 1.3-1 2.2-2.3 2.2-4-0.1-2.3-1.5-4.4-2.7-6.3q-1.6-2.6-3.5-5.1c-2.5-3.3-5.4-6.4-8.4-9.2-9.3-8.5-20.5-14.2-32.4-17.8zm54.8-4.8q0.2-0.2 0.4-0.5c-4.9 0.1-9.7 0.1-14.6 0.1q-13.9 0.1-27.7 0.6-6.9 0.2-13.7 0.6-3 0.1-5.9 0.3 4.7 1.1 9.4 2.5c13.9 2.3 28 3.5 42.1 4.2 0.4 0 0.3 0.7-0.1 0.7-4.1 0-8.1-0.1-12.2-0.3q-10.6-0.5-21.2-1.8-0.8-0.1-1.6-0.2 2.8 1.2 5.6 2.6 6.2 3 11.7 7.1c1.6 0.3 3.3 0 4.8-0.4 2.2-0.7 4.3-1.8 6.4-2.9 4.3-2.2 8.3-5 11.9-8.1q2.5-2.2 4.7-4.5zm3.1-11.9c-5.3-0.5-10.7-0.4-16 0.2-4.9 0.6-9.7 1.5-14.5 2.5-4.7 0.9-9.4 1.8-14 2.8-7.9 1.6-15.7 3.5-23.3 5.9 3.5-0.2 7.1-0.3 10.6-0.5 9.2-0.4 18.4-0.6 27.7-0.7 9.2-0.1 18.4-0.1 27.6 0.3 1-1.2 2-2.4 2.6-3.9 1-2.4 0.5-4.6-0.7-6.6zm-3.9-4q-1.5-1-3.1-1.8c-2.3-0.2-4.6-0.4-6.9-0.2-2.4 0.1-4.9 0.4-7.2 0.9-4.5 0.8-8.9 2.1-13.3 3.4q-6.4 2-12.7 4.1-6.4 2.2-12.7 4.5-3 1-5.9 2.2 4-1.2 8.1-2.2c9.5-2.3 19.2-4.1 28.8-5.8 9.3-1.7 18.9-3.1 28.4-1.7-1-1.3-2.2-2.4-3.5-3.4zm-63.2 11.9q0.6-0.3 1.3-0.5 3.6-1.3 7.1-2.6c8.7-3 17.4-5.6 26.3-8.1 4.3-1.2 8.7-2.4 13.2-3.1q3.2-0.5 6.5-0.6 1.5 0 2.9 0.1c-5.3-1.7-11.4-1.7-16.9-1.1-14.6 1.5-28.7 7.1-40.4 15.9zm21.9-48.9q-0.1-0.2-0.2-0.4c0.9 4.2 1.1 8.6 1 12.9-0.1 4.7-0.5 9.6-1.5 14.3-0.8 3.7-2.1 7.4-4.4 10.4q1.3-0.5 2.6-1 4-1.5 8.2-2.7 0.2-1.8 0.3-3.7c0.6-10.3-1.7-20.5-6-29.8zm-28.5 46.9q0.2 0.4 0.5 0.8c0.2 0 0.4 0 0.4 0.2q0 0.1 0 0.1-0.4-7.3-1-14.5c-0.8-10.2-1.7-20.5-0.9-30.7 0.6-8.5 2.5-17.2 6.4-24.8-1.8 1-3.2 2.7-4.3 4.4-2.7 3.8-4.8 8.2-6.2 12.7-2.9 9.4-3.2 19.5-1.6 29.2 0.9 5.1 2.2 10.1 3.9 15 0.8 2.4 1.9 4.8 2.7 7.2q0 0.2 0.1 0.4zm-19.4-32c-1.7-2.9-3.3-5.7-5.1-8.5-7-11.3-16-22.4-28.8-27.1q0.4 0.5 0.8 0.9 1 1 1.9 2.1 2 2 3.9 4.1 6.9 7.3 14 14.5 3.5 3.7 7.1 7.4 1.7 1.8 3.5 3.6 0.9 0.9 1.7 1.8c0.4 0.4 0.7 0.7 0.9 1.2zm-1.5-0.6q-0.2-0.2-0.4-0.4-0.9-0.9-1.9-1.8-2-2-4-4-7.1-7.1-14.2-14.3-3.5-3.7-7.1-7.3-1.8-1.8-3.6-3.6-0.3-0.4-0.7-0.8 1.2 3.5 2.9 6.8c6.1 11.7 16.6 21 29 25.4zm15.8-56.2c3.4-1.8 7-3.1 10.8-4 4.7-1.2 9.5-1.7 14.2-1.9q3.7-0.1 7.3 0c-6.7-1.6-13.5-4.1-20.3-2.3-4.8 1.4-8.6 4.6-12 8.2zm6.1 2.5c7 0.2 14.1 2 21.1 0.4 5.2-1.2 9.9-3.8 14.3-6.8q-1-0.1-1.9-0.4c-2.5 0.3-5 0.1-7.5 0.1-2.7-0.1-5.5 0-8.2 0.1-8.9 0.4-18 2.1-25.7 6.8q-0.6 0.3-1.2 0.8l-0.2 0.1c3-0.9 6.1-1.2 9.3-1.1zm-11.5-18q2.1-2.1 4.5-3.9c3.3-2.5 7.1-4.4 10.8-6.4 3.7-1.9 7.3-4 10.2-6.8 3.2-3.1 5.2-7.2 5.9-11.6 0.9-4.9 0.4-10-0.6-14.9q-0.4-1.8-0.8-3.7-0.3-1.1-0.5-2.1-0.1-0.4-0.2-0.8c-0.3 0.3-0.7 0.6-0.8 0.7q-0.6 0.7-1.2 1.3-1.1 1.3-2.2 2.6c-5.8 7.1-10.5 15-14.7 23.1q-1.2 2.7-2.6 5.3-1.9 3.9-3.7 7.8c-1.4 3.1-2.7 6.3-4.1 9.4zm0-7q1.6-3.1 3.2-6.3c1.3-2.4 2.6-4.9 4-7.3q1.6-3.3 3.4-6.5c4.2-7.8 9.1-15.2 14.9-21.9-2.6 1.2-5 2.6-7.3 4.4-6.4 4.8-11.4 11.3-14.4 18.6-1.7 4.2-2.5 8.6-3.1 13.1-0.2 2-0.4 4-0.7 5.9z"/>
		<path id="&lt;Path&gt;" class="s0" d="m140.2 243.8c-1.5 1.2-2 3.2-1.3 5 0.5 1.2 1.4 2 2.6 2.4q0.2 0.1 0.4 0.3c0.7 0.4 1.5 0.7 2.3 0.9 1 0.2 2.1 0.1 2.9-0.6 0.8-0.5 1.2-1.5 1.2-2.4q0-0.6-0.1-1.1 0-0.3-0.1-0.7c-0.2-1.6-1.2-3.2-2.7-4.1-1.6-1-3.7-1-5.2 0.3z"/>
		<path id="&lt;Path&gt;" class="s0" d="m150.7 243.1q-0.1 0.1-0.2 0.2-0.5 0.3-0.8 0.7-0.1 0.2-0.2 0.5c-0.3 0.1-0.4 0.4-0.3 0.7q0 0.2 0.1 0.3 0 0.2 0 0.3c0.1 1.2 1.3 2.2 2.5 2.4 1.3 0.1 2.5-0.6 3-1.8 0.6-1.1 0.2-2.5-0.7-3.3-1-0.8-2.4-0.8-3.4 0z"/>
		<path id="&lt;Path&gt;" class="s0" d="m153.2 249.4q-0.5 0.1-0.9 0.3-0.1 0.1-0.1 0.1-0.5 0.1-0.8 0.4c-0.6 0.6-0.9 1.2-0.9 2q0.1 0.2 0.1 0.4 0.1 0.4 0.2 0.7c0.2 0.7 0.8 1.2 1.4 1.5 0.8 0.3 1.6 0.2 2.2-0.3 0.4 0 0.8-0.2 1.1-0.5 0.5-0.4 0.9-1 0.9-1.7 0-0.6-0.1-1.3-0.6-1.8-0.4-0.6-1-0.9-1.7-1q-0.5-0.1-0.9-0.1z"/>
		<path id="&lt;Path&gt;" class="s0" d="m146.8 239.5q-0.1-0.1-0.2-0.1-0.1 0-0.1 0-0.1 0-0.1 0-0.2 0-0.3 0.1 0 0-0.1 0 0 0-0.1 0h0.1q-0.1 0-0.1 0 0 0 0 0-0.1 0.1-0.2 0.2-0.1 0-0.1 0.1 0 0 0 0-0.1 0-0.1 0.1 0 0 0 0 0 0-0.1 0.1c-0.1 0.1-0.1 0.2-0.1 0.4q0 0 0 0c0 0 0 0.2 0 0.2q0 0 0 0 0 0 0 0 0 0.2 0.1 0.3 0 0 0 0c0 0 0.1 0.2 0.1 0.2 0.1 0.1 0.3 0.3 0.4 0.3q0.2 0.1 0.3 0.1 0 0 0.1 0 0.1 0 0.3 0 0.1 0 0.2-0.1 0.2 0 0.3-0.2 0.2-0.1 0.2-0.2 0.1-0.2 0.1-0.4 0.1-0.1 0-0.3 0 0 0 0 0 0 0-0.1 0-0.1 0-0.2-0.1-0.2-0.3-0.4c-0.1 0-0.2 0-0.2-0.1q-0.1 0-0.1 0 0 0 0 0z"/>
		<path id="&lt;Path&gt;" class="s0" d="m302.6 235c-1.1 0.4-2 1.3-2.5 2.4q-0.2 0.5-0.3 1.1-0.4 0.4-0.6 1c-0.3 1.1 0.2 2.1 0.9 2.9q0.2 0.4 0.5 0.7 0.6 0.6 1.4 1 0.7 0.5 1.5 0.8 0.5 0.3 1.2 0.3c1.2 0.4 2.5 0.4 3.7-0.2 1.3-0.6 2.1-1.8 2.3-3.2 0.2-2.8-1.9-5.3-4.2-6.4-1.2-0.6-2.6-0.8-3.9-0.4z"/>
		<path id="&lt;Path&gt;" class="s0" d="m316.2 234c-0.6 0.1-1.1 0.4-1.6 0.8-1.2 0-2.4 0.7-2.6 2.1q0 0.3 0.1 0.5c-0.2 0.3-0.3 0.6-0.1 1 0.7 1 1.9 2.1 3.1 2.4q0.1 0 0.2 0.1c0.6 0.3 1.2 0.5 1.8 0.7 0.7 0.1 1.3 0.3 2 0.3 1.6 0 3.1-0.8 3.4-2.5 0.4-1.6-0.6-3.1-1.8-4-1.2-0.9-2.9-1.7-4.5-1.4z"/>
		<g id="&lt;Group&gt;">
			<path id="&lt;Path&gt;" class="s0" d="m315.6 242.5q-0.1 0-0.2 0-0.5 0.1-0.9 0.3-0.7 0.3-1 1c-0.2 0.1-0.4 0.3-0.5 0.6 0 0.4 0.1 0.8 0.3 1.2q0.1 0.1 0.1 0.1 0 0 0 0.1 0.1 0 0.1 0 0 0-0.1 0 0.1 0.2 0.3 0.5c0.5 0.8 1.6 1.1 2.5 1 1.1-0.1 2-0.9 2.1-2 0.2-0.9-0.3-1.9-1-2.4-0.5-0.3-1.1-0.5-1.7-0.4z"/>
			<path id="&lt;Path&gt;" class="s0" d="m313.3 245.6q0 0 0 0 0.1 0.1 0.1 0.2 0 0 0 0 0-0.1-0.1-0.2z"/>
		</g>
		<path id="&lt;Path&gt;" class="s0" d="m310.6 248.3q-0.1 0.1-0.2 0.1 0 0.1-0.1 0.2 0 0 0 0 0 0-0.1 0 0 0.1 0 0.1-0.1 0.1-0.1 0.1-0.1 0.2-0.2 0.5v0.2q0.1 0.2 0.2 0.4 0.1 0.2 0.3 0.2 0.1 0.1 0.3 0.1 0.2 0.1 0.3 0 0.2 0 0.3-0.1 0.2-0.2 0.3-0.4l0.1-0.2q0 0 0 0 0-0.1 0-0.1c0.1-0.1 0.1-0.3 0.1-0.4q-0.1-0.3-0.2-0.4-0.1-0.2-0.3-0.2-0.1-0.1-0.3-0.1-0.2-0.1-0.4 0z"/>
		<path id="&lt;Path&gt;" class="s0" d="m318.8 125.3c-1.1 0.5-2 1.6-2.1 2.9 0 1 0.3 2 0.8 3q0 0.3 0.1 0.6 0 0.7 0.2 1.4c0.3 1 0.9 2.1 1.9 2.6 0.6 0.2 1.2 0.2 1.7 0.1 1.9 0.4 3.4-0.8 4.2-2.4 0.2-0.3 0.4-0.7 0.6-1.1 0.4-1.4 0.1-2.6-0.6-3.7-0.6-1.4-1.7-2.5-3.2-3.1-1.1-0.5-2.4-0.7-3.6-0.3z"/>
		<path id="&lt;Path&gt;" class="s0" d="m331.5 125.8c-0.7 0.2-1.4 0.4-2 0.9q0 0 0 0c-0.6 0.2-1 0.7-1.1 1.3q-0.2 0.1-0.3 0.4c-0.1 0.4 0 0.7 0.3 0.9-0.2 0.4 0 0.9 0.4 0.9q0.5 0 0.9 0 0.1 0 0.2 0c0.7 0.4 1.4 0.5 2.2 0.4 0.7 0 1.4-0.1 2-0.4 0.7-0.4 1.2-1 1.3-1.9q0-0.4-0.2-0.8c-0.1-0.7-0.7-1.4-1.4-1.7-0.7-0.3-1.5-0.2-2.3 0z"/>
		<path id="&lt;Path&gt;" class="s0" d="m329.4 133q0 0 0 0-0.2 0-0.3 0-0.1 0.1-0.3 0.2 0 0-0.1 0-0.2 0.2-0.4 0.3-0.1 0.1-0.2 0.2-0.1 0.2-0.1 0.3 0 0.1 0 0.2 0 0.2 0.1 0.3 0.1 0.1 0.1 0.1 0.1 0.2 0.3 0.2 0.1 0 0.2 0.1 0.2 0 0.4-0.1 0.2-0.1 0.4-0.3 0.1 0 0.1 0 0.2-0.1 0.3-0.2c0.1 0 0.1-0.1 0.2-0.2q0 0 0 0 0-0.1 0.1-0.2 0-0.1 0-0.2 0-0.1 0-0.2 0-0.1-0.1-0.2 0-0.1-0.1-0.2 0-0.1-0.2-0.1-0.1 0-0.2 0-0.1-0.1-0.2 0z"/>
		<path id="&lt;Path&gt;" class="s1" d="m211.4 344.6c-2.6-0.2-4.7 2-4.6 4.5 0 1.2 0.4 2.3 1.1 3.2 1.1 1.8 3.3 2.9 5.3 2.4q1-0.2 1.8-0.8c0.7-0.3 1.4-0.9 1.7-1.8 0.9-2-0.4-4.2-2-5.6-0.9-1-2-1.7-3.3-1.9z"/>
		<path id="&lt;Path&gt;" class="s1" d="m221.3 351.3c-0.6 0-1.1 0.2-1.4 0.7-0.3 0.5-0.5 1.1-0.3 1.7 0.3 1.2 1.2 2 2.3 2.2 1 0.2 2.2-0.3 2.7-1.1 0.3-0.6 0.5-1.2 0.4-1.8 0-0.5-0.3-1-0.6-1.3-0.5-0.5-1-0.8-1.6-0.8-0.6-0.1-1.1 0.1-1.5 0.4z"/>
		<path id="&lt;Path&gt;" class="s1" d="m218.6 357q-0.1 0-0.2 0.1 0 0.1-0.1 0.1-0.1 0.1-0.1 0.2 0 0.1 0 0.1-0.1 0-0.1 0.1 0 0.1-0.1 0.3v0.1q0 0.2 0 0.3 0.1 0.2 0.2 0.3l0.1 0.1q0.1 0.1 0.3 0.2 0.1 0 0.2 0 0.1 0 0.3-0.1 0.1 0 0.2-0.1 0.1-0.1 0.2-0.3 0 0 0-0.1 0.1-0.1 0.1-0.1 0-0.1 0-0.1 0-0.1 0-0.1 0 0 0.1-0.1 0-0.2 0-0.3 0-0.1-0.1-0.2 0-0.2-0.1-0.3-0.1-0.1-0.3-0.1-0.1-0.1-0.2-0.1-0.2 0-0.4 0.1z"/>
		<path id="&lt;Path&gt;" class="s1" d="m261.5 327.4c0 1 0.1 1.9 0.3 2.9 0.4 1.4 0.9 2.8 1.8 4 0.8 1.1 1.9 2.3 3.2 2.8 0.5 0.2 1 0.4 1.6 0.4 0.7-0.2 1.3-0.7 1.5-1.4q0 0 0-0.1c0.4-0.8 0.3-1.6 0-2.4q-0.3-0.9-0.7-1.7-0.1-0.2-0.2-0.3c-0.5-1.1-1.3-2.2-2.4-2.9q-0.2-0.2-0.4-0.3 0 0 0-0.1c-0.5-0.4-1-1-1.7-1.2q-0.2-0.1-0.4-0.1-0.5-0.3-1.1-0.5c-0.6-0.2-1.5 0.1-1.5 0.9z"/>
		<path id="&lt;Path&gt;" class="s1" d="m271.9 330.3c-0.7 0.8-0.7 2.1 0.1 2.9 0.3 0.4 0.7 0.7 1.2 0.9q0.1 0.1 0.1 0.1 0.1 0 0.2 0.1 0.3 0.2 0.8 0.3c0.6 0.2 1.2 0.3 1.9 0 0.4-0.1 0.9-0.4 1.1-0.8 0.4-0.6 0.5-1.2 0.3-1.9-0.1-0.4-0.4-0.9-0.9-1.2q-0.5-0.3-1.1-0.4-0.4-0.1-0.9-0.2c-0.3-0.2-0.7-0.3-1.1-0.4-0.6 0-1.2 0.2-1.7 0.6z"/>
	</g>
</svg>